<?xml version="1.0" encoding="UTF-8" standalone="no"?>
<!-- Created with Inkscape (http://www.inkscape.org/) -->

<svg
   version="1.1"
   id="svg1"
   width="537.38776"
   height="140.75"
   viewBox="0 0 537.38776 140.75"
   xmlns="http://www.w3.org/2000/svg"
   xmlns:svg="http://www.w3.org/2000/svg">
  <defs
     id="defs1" />
  <path
     id="path4"
     d="M 537.08719,90.562531 H 0.00320394 v -8.088 H 537.08719 Z"
     style="fill:#c82128;fill-opacity:1;fill-rule:nonzero;stroke:none;stroke-width:1.33333" />
  <path
     id="path5"
     d="m 15.09867,127.63666 c -4.126667,-0.0587 -7.3146665,0.97333 -7.3146665,4.172 0,2.108 1.3306666,3.136 3.0866665,3.136 1.96,0 3.552,-1.34933 4.076,-3.02667 0.096,-0.43866 0.152,-0.93333 0.152,-1.416 z m 7.630666,6.064 c 0,2.544 0.1,4.99867 0.36,6.44533 h -7.061333 l -0.456,-2.65733 h -0.16 c -1.656,2.12267 -4.230666,3.26133 -7.2159995,3.26133 -5.1066665,0 -8.13733312,-3.90133 -8.13733312,-8.13333 0,-6.88133 5.86533322,-10.17733 14.77866662,-10.13067 v -0.37733 c 0,-1.408 -0.716,-3.40667 -4.581334,-3.40667 -2.5746661,0 -5.3079994,0.916 -6.966666,1.99867 l -1.432,-5.308 c 1.748,-1.024 5.2066665,-2.336 9.782666,-2.336 8.406667,0 11.089333,5.20267 11.089333,11.432 z"
     style="fill:#fff6d5;fill-opacity:1;fill-rule:nonzero;stroke:none;stroke-width:1.33333" />
  <path
     id="path6"
     d="m 28.91107,122.10799 c 0,-3.30267 -0.104,-6.12267 -0.205333,-8.44267 h 6.6 l 0.362666,3.564 h 0.145333 c 1.074667,-1.66933 3.296,-4.172 7.633334,-4.172 3.241333,0 5.825333,1.73867 6.893333,4.50667 h 0.105333 c 0.94,-1.42667 2.066667,-2.45067 3.256,-3.20667 1.384,-0.86533 2.929333,-1.3 4.786667,-1.3 4.843999,0 8.507999,3.584 8.507999,11.48934 v 15.59866 h -7.637333 v -14.40933 c 0,-3.83333 -1.184,-6.064 -3.701333,-6.064 -1.8,0 -3.089333,1.30133 -3.610667,2.86933 -0.202666,0.604 -0.301333,1.464 -0.301333,2.12 v 15.484 H 44.11507 v -14.84 c 0,-3.35066 -1.129334,-5.63333 -3.612,-5.63333 -2.004,0 -3.186667,1.62933 -3.653334,2.98267 -0.261333,0.648 -0.312,1.40133 -0.312,2.056 v 15.43466 H 28.91107 Z"
     style="fill:#fff6d5;fill-opacity:1;fill-rule:nonzero;stroke:none;stroke-width:1.33333" />
  <path
     id="path7"
     d="m 88.59214,110.56772 h -9.337333 v -6.92933 h 26.704003 v 6.92933 h -9.485337 v 29.57867 H 88.59214 Z"
     style="fill:#fff6d5;fill-opacity:1;fill-rule:nonzero;stroke:none;stroke-width:1.33333" />
  <path
     id="path8"
     d="m 109.25614,101.68226 h 7.83067 v 15.12533 h 0.11333 c 0.816,-1.136 1.85467,-2.056 3.08933,-2.72 1.18534,-0.63733 2.62267,-1.03066 4.06667,-1.03066 5.00267,0 8.82267,3.628 8.82267,11.604 v 15.48533 h -7.83734 v -14.56667 c 0,-3.472 -1.13733,-5.86666 -4.07466,-5.86666 -2.068,0 -3.34667,1.42266 -3.91867,2.884 -0.208,0.54933 -0.26133,1.24666 -0.26133,1.836 v 15.71333 h -7.83067 z"
     style="fill:#fff6d5;fill-opacity:1;fill-rule:nonzero;stroke:none;stroke-width:1.33333" />
  <path
     id="path9"
     d="m 146.09987,126.88279 c 0,4.54933 1.81333,7.956 5.164,7.956 3.04133,0 5.008,-3.19467 5.008,-7.956 0,-3.956 -1.452,-7.96933 -5.008,-7.96933 -3.764,0 -5.164,4.05866 -5.164,7.96933 m 18.25467,-0.27467 c 0,9.69334 -6.55067,14.13734 -13.3,14.13734 -7.368,0 -13.03334,-5.09067 -13.03334,-13.65867 0,-8.56267 5.35867,-14.02933 13.452,-14.02933 7.73067,0 12.88134,5.58666 12.88134,13.55066"
     style="fill:#fff6d5;fill-opacity:1;fill-rule:nonzero;stroke:none;stroke-width:1.33333" />
  <path
     id="path10"
     d="m 169.19361,122.10799 c 0,-3.30267 -0.0947,-6.12267 -0.196,-8.44267 h 6.588 l 0.36533,3.564 h 0.15334 c 1.08666,-1.66933 3.29866,-4.172 7.624,-4.172 3.26,0 5.83466,1.73867 6.90266,4.50667 h 0.10534 c 0.93866,-1.42667 2.06933,-2.45067 3.25066,-3.20667 1.4,-0.86533 2.928,-1.3 4.78667,-1.3 4.84933,0 8.50933,3.584 8.50933,11.48934 v 15.59866 h -7.63333 v -14.40933 c 0,-3.83333 -1.18133,-6.064 -3.696,-6.064 -1.81467,0 -3.092,1.30133 -3.61733,2.86933 -0.208,0.604 -0.304,1.464 -0.304,2.12 v 15.484 h -7.63467 v -14.84 c 0,-3.35066 -1.12933,-5.63333 -3.60267,-5.63333 -2.01333,0 -3.18933,1.62933 -3.65466,2.98267 -0.26267,0.648 -0.312,1.40133 -0.312,2.056 v 15.43466 h -7.63467 z"
     style="fill:#fff6d5;fill-opacity:1;fill-rule:nonzero;stroke:none;stroke-width:1.33333" />
  <path
     id="path11"
     d="m 226.92281,127.63666 c -4.12533,-0.0587 -7.31467,0.97333 -7.31467,4.172 0,2.108 1.34,3.136 3.08667,3.136 1.96533,0 3.55467,-1.34933 4.072,-3.02667 0.10533,-0.43866 0.156,-0.93333 0.156,-1.416 z m 7.63067,6.064 c 0,2.544 0.0973,4.99867 0.35466,6.44533 h -7.056 l -0.464,-2.65733 h -0.13866 c -1.66,2.12267 -4.24,3.26133 -7.224,3.26133 -5.112,0 -8.14134,-3.90133 -8.14134,-8.13333 0,-6.88133 5.86534,-10.17733 14.77734,-10.13067 v -0.37733 c 0,-1.408 -0.71467,-3.40667 -4.576,-3.40667 -2.58934,0 -5.30934,0.916 -6.96534,1.99867 l -1.44666,-5.308 c 1.756,-1.024 5.21066,-2.336 9.796,-2.336 8.40533,0 11.084,5.20267 11.084,11.432 z"
     style="fill:#fff6d5;fill-opacity:1;fill-rule:nonzero;stroke:none;stroke-width:1.33333" />
  <path
     id="path12"
     d="m 240.69241,132.94786 c 1.444,0.91733 4.432,1.99733 6.74,1.99733 2.38133,0 3.34667,-0.872 3.34667,-2.22666 0,-1.34534 -0.75867,-1.992 -3.7,-3.02934 -5.21334,-1.82933 -7.22267,-4.81866 -7.168,-7.9 0,-4.98133 4.02266,-8.732 10.26133,-8.732 2.93733,0 5.56133,0.712 7.10267,1.52134 l -1.38534,5.68933 c -1.13733,-0.64933 -3.304,-1.51467 -5.468,-1.51467 -1.90266,0 -2.98933,0.80934 -2.98933,2.16 0,1.25867 0.98133,1.90667 4.06933,3.04134 4.79467,1.73733 6.81067,4.27066 6.864,8.176 0,4.93466 -3.704,8.616 -10.93333,8.616 -3.28933,0 -6.22533,-0.81734 -8.14,-1.912 z"
     style="fill:#fff6d5;fill-opacity:1;fill-rule:nonzero;stroke:none;stroke-width:1.33333" />
  <path
     id="path13"
     d="m 275.00453,128.6692 h -13.49467 v -5.524 h 13.49467 z"
     style="fill:#fff6d5;fill-opacity:1;fill-rule:nonzero;stroke:none;stroke-width:1.33333" />
  <path
     id="path14"
     d="m 309.32907,126.17319 c -0.15067,-4.39067 -0.312,-9.692 -0.312,-15.00267 h -0.14933 c -1.07334,4.64934 -2.52534,9.852 -3.85867,14.136 l -4.232,14.24134 h -6.128 l -3.72133,-14.08534 c -1.13067,-4.32666 -2.312,-9.528 -3.13334,-14.292 h -0.11066 c -0.19867,4.91734 -0.364,10.54934 -0.60934,15.10667 l -0.62266,13.868 h -7.26934 l 2.21867,-36.50667 h 10.456 l 3.41067,12.18134 c 1.08266,4.18133 2.15866,8.78133 2.928,13.07733 h 0.16133 c 0.972,-4.236 2.15867,-9.05467 3.288,-13.124 l 3.71067,-12.13467 h 10.264 l 1.91466,36.50667 h -7.68933 z"
     style="fill:#fff6d5;fill-opacity:1;fill-rule:nonzero;stroke:none;stroke-width:1.33333" />
  <path
     id="path15"
     d="m 336.85254,127.63666 c -4.11733,-0.0587 -7.31467,0.97333 -7.31467,4.172 0,2.108 1.33334,3.136 3.096,3.136 1.964,0 3.54667,-1.34933 4.06267,-3.02667 0.10267,-0.43866 0.156,-0.93333 0.156,-1.416 z m 7.63067,6.064 c 0,2.544 0.10133,4.99867 0.352,6.44533 h -7.04667 l -0.47333,-2.65733 h -0.14534 c -1.65733,2.12267 -4.23066,3.26133 -7.21466,3.26133 -5.108,0 -8.14,-3.90133 -8.14,-8.13333 0,-6.88133 5.86266,-10.17733 14.78533,-10.13067 v -0.37733 c 0,-1.408 -0.72533,-3.40667 -4.588,-3.40667 -2.57333,0 -5.31067,0.916 -6.96533,1.99867 l -1.436,-5.308 c 1.74933,-1.024 5.20666,-2.336 9.79866,-2.336 8.39867,0 11.07334,5.20267 11.07334,11.432 z"
     style="fill:#fff6d5;fill-opacity:1;fill-rule:nonzero;stroke:none;stroke-width:1.33333" />
  <path
     id="path16"
     d="m 350.66627,122.10799 c 0,-3.30267 -0.0933,-6.12267 -0.20267,-8.44267 h 6.8 l 0.364,3.62 h 0.16134 c 1.01866,-1.67733 3.60266,-4.228 7.77733,-4.228 5.14533,0 9.01733,3.584 9.01733,11.37467 v 15.71333 h -7.832 v -14.68266 c 0,-3.412 -1.14533,-5.74934 -3.97733,-5.74934 -2.15867,0 -3.45067,1.588 -3.96667,3.10667 -0.19866,0.54133 -0.31333,1.29467 -0.31333,2.05067 v 15.27466 h -7.828 z"
     style="fill:#fff6d5;fill-opacity:1;fill-rule:nonzero;stroke:none;stroke-width:1.33333" />
  <path
     id="path17"
     d="m 380.86561,122.10799 c 0,-3.30267 -0.0947,-6.12267 -0.2,-8.44267 h 6.80133 l 0.368,3.62 h 0.148 c 1.036,-1.67733 3.60534,-4.228 7.78134,-4.228 5.16533,0 9.01866,3.584 9.01866,11.37467 v 15.71333 h -7.828 v -14.68266 c 0,-3.412 -1.13466,-5.74934 -3.98266,-5.74934 -2.14534,0 -3.43734,1.588 -3.95334,3.10667 -0.216,0.54133 -0.3,1.29467 -0.3,2.05067 v 15.27466 h -7.85333 z"
     style="fill:#fff6d5;fill-opacity:1;fill-rule:nonzero;stroke:none;stroke-width:1.33333" />
  <path
     id="path18"
     d="m 422.98853,128.6692 h -13.508 v -5.524 h 13.508 z"
     style="fill:#fff6d5;fill-opacity:1;fill-rule:nonzero;stroke:none;stroke-width:1.33333" />
  <path
     id="path19"
     d="m 435.70934,120.70052 c 0.67467,0.16533 1.50267,0.212 2.62533,0.212 4.18267,0 6.748,-2.21867 6.748,-5.956 0,-3.35867 -2.20666,-5.37333 -6.132,-5.37333 -1.59066,0 -2.68266,0.164 -3.24133,0.34266 z m -7.784,-16.568 c 2.42267,-0.436 5.83333,-0.768 10.628,-0.768 4.83333,0 8.29467,0.976 10.60933,2.91867 2.212,1.856 3.70267,4.884 3.70267,8.468 0,3.56666 -1.128,6.60533 -3.18667,8.66 -2.67466,2.65333 -6.65466,3.84 -11.29466,3.84 -1.024,0 -1.95467,-0.056 -2.67467,-0.164 v 13.05866 h -7.784 z"
     style="fill:#fff6d5;fill-opacity:1;fill-rule:nonzero;stroke:none;stroke-width:1.33333" />
  <path
     id="path20"
     d="m 457.60853,101.68253 h 7.84266 v 38.464 h -7.84266 z"
     style="fill:#fff6d5;fill-opacity:1;fill-rule:nonzero;stroke:none;stroke-width:1.33333" />
  <path
     id="path21"
     d="m 485.18454,127.63666 c -4.11867,-0.0587 -7.31733,0.97333 -7.31733,4.172 0,2.108 1.332,3.136 3.08933,3.136 1.96,0 3.56133,-1.34933 4.076,-3.02667 0.1,-0.43866 0.152,-0.93333 0.152,-1.416 z m 7.62933,6.064 c 0,2.544 0.10134,4.99867 0.35867,6.44533 h -7.064 l -0.456,-2.65733 h -0.156 c -1.65467,2.12267 -4.22933,3.26133 -7.21467,3.26133 -5.1,0 -8.136,-3.90133 -8.136,-8.13333 0,-6.88133 5.86267,-10.17733 14.77734,-10.13067 v -0.37733 c 0,-1.408 -0.72,-3.40667 -4.58134,-3.40667 -2.57333,0 -5.30933,0.916 -6.95333,1.99867 l -1.45467,-5.308 c 1.764,-1.024 5.20534,-2.336 9.79067,-2.336 8.40667,0 11.08933,5.20267 11.08933,11.432 z"
     style="fill:#fff6d5;fill-opacity:1;fill-rule:nonzero;stroke:none;stroke-width:1.33333" />
  <path
     id="path22"
     d="m 507.35507,106.46092 v 7.196 h 5.61467 v 6.056 h -5.61467 v 9.59867 c 0,3.196 0.71467,4.652 3.096,4.652 1.06667,0 1.53733,-0.0467 2.30533,-0.20667 l 0.0613,6.224 c -1.03067,0.432 -2.88934,0.75733 -5.108,0.75733 -2.52667,0 -4.63467,-0.96133 -5.87467,-2.324 -1.44267,-1.57066 -2.16267,-4.116 -2.16267,-7.85333 v -10.848 h -3.35066 v -6.056 h 3.35066 v -4.992 z"
     style="fill:#fff6d5;fill-opacity:1;fill-rule:nonzero;stroke:none;stroke-width:1.33333" />
  <path
     id="path23"
     d="m 515.49574,135.43612 7.93467,-10.45333 c 1.44,-1.79734 2.58266,-3.08 4.01733,-4.71467 v -0.11467 h -11.084 v -6.488 h 20.62133 v 4.91867 l -7.58133,10.02267 c -1.39067,1.73733 -2.68,3.412 -4.11867,4.87066 v 0.11734 h 12.10267 v 6.55066 h -21.892 z"
     style="fill:#fff6d5;fill-opacity:1;fill-rule:nonzero;stroke:none;stroke-width:1.33333" />
  <path
     id="path24"
     d="M 31.87467,51.35799 C 29.772003,40.459324 26.03867,26.240657 19.457337,1.2779913 H 4.1302e-6 V 66.26999 H 11.598671 c 0,-26.484 -0.072,-44.353333 -0.385334,-54.403999 h 0.329334 C 13.957337,21.904657 18.796004,39.767324 25.89467,66.26999 H 38.069337 C 45.57067,39.17799 50.07867,21.887324 52.428003,11.865991 h 0.317333 c -0.208,10.050666 -0.317333,27.919999 -0.317333,54.403999 h 11.604 V 1.2779913 H 44.585336 C 37.937337,26.075324 34.289337,40.41399 32.136003,51.35799 Z"
     style="fill:#fff6d5;fill-opacity:1;fill-rule:nonzero;stroke:none;stroke-width:1.33333" />
  <path
     id="path25"
     d="m 120.87334,1.27866 h -12.65867 v 42.371999 c 0,9.752 -2.352,14.914666 -11.039996,14.914666 -8.744,0 -10.925333,-5.353333 -10.925333,-14.914666 V 1.27866 H 73.574675 v 42.029332 c 0,17.401333 6.786666,24.248 23.582666,24.248 17.258669,0 23.715999,-7.188 23.715999,-24.161333 z"
     style="fill:#fff6d5;fill-opacity:1;fill-rule:nonzero;stroke:none;stroke-width:1.33333" />
  <path
     id="path26"
     d="M 168.06734,15.25132 C 166.91267,6.6526535 161.06201,6.537146e-4 149.49401,6.537146e-4 c -6.83867,0 -11.664,2.0426665854 -14.97334,5.1786665854 -3.292,2.8999999 -4.73466,7.0199997 -4.73466,11.5039997 0,5.838666 2.332,9.874666 4.81866,12.609333 2.36534,2.674667 5.66267,5.153333 10.46534,8.097333 4.508,3.004 6.648,4.42 8.40666,5.918667 1.81734,1.772 2.928,3.862666 2.928,6.902666 0,1.916 -0.54666,3.965333 -1.65866,5.332 -1.22134,1.434667 -3.176,2.913333 -6.14534,2.913333 -4.648,0 -6.75733,-3.477333 -7.672,-7.432 l -12.59466,0.570667 c 1.21333,9.146667 7.084,15.961333 20.33066,15.961333 7.87467,0 12.83467,-3.202667 16.03734,-6.453333 3.44933,-3.538667 4.88,-8.205333 4.88,-12.645333 0,-5.610667 -2.28534,-9.618667 -4.844,-12.478667 -2.24534,-2.422666 -5.236,-4.358666 -9.73467,-7.245333 -4.516,-2.612 -6.41067,-3.909333 -8.736,-5.814666 -2.44933,-1.904 -3.63333,-4.405333 -3.63333,-7.205333 0,-1.732 0.51333,-3.361334 1.544,-4.456 1.16933,-1.2746669 3.064,-2.1760002 5.05733,-2.1760002 4.196,0 5.91467,3.3933332 6.70533,6.5546662 z"
     style="fill:#fff6d5;fill-opacity:1;fill-rule:nonzero;stroke:none;stroke-width:1.33333" />
  <path
     id="path27"
     d="M 189.4672,1.2785328 H 176.42053 V 66.265198 h 13.04667 z"
     style="fill:#fff6d5;fill-opacity:1;fill-rule:nonzero;stroke:none;stroke-width:1.33333" />
  <path
     id="path28"
     d="m 212.54387,32.19266 c 0.12133,-5.004 0.144,-9.218666 0.144,-14.669333 V 1.2779941 H 199.68254 V 66.269992 h 13.00533 V 47.637993 l 6.292,-8.857333 13.49867,27.489332 H 247.3452 L 226.71987,28.775327 244.71854,1.2779941 H 230.2492 L 220.95987,17.57666 c -2.96933,5.486667 -5.504,9.485333 -8.14133,14.616 z"
     style="fill:#fff6d5;fill-opacity:1;fill-rule:nonzero;stroke:none;stroke-width:1.33333" />
  <path
     id="path29"
     d="M 290.15201,15.25132 C 288.97734,6.6526535 283.12934,6.537146e-4 271.56668,6.537146e-4 c -6.85467,0 -11.672,2.0426665854 -14.98267,5.1786665854 -3.27867,2.8999999 -4.736,7.0199997 -4.736,11.5039997 0,5.838666 2.33333,9.874666 4.83333,12.609333 2.352,2.674667 5.64934,5.153333 10.452,8.097333 4.516,3.004 6.65734,4.42 8.41867,5.918667 1.81333,1.772 2.91067,3.862666 2.91067,6.902666 0,1.916 -0.52934,3.965333 -1.64934,5.332 -1.22933,1.434667 -3.176,2.913333 -6.14933,2.913333 -4.656,0 -6.74933,-3.477333 -7.66533,-7.432 l -12.59734,0.570667 c 1.21867,9.146667 7.088,15.961333 20.33867,15.961333 7.864,0 12.82667,-3.202667 16.03067,-6.453333 3.444,-3.538667 4.87733,-8.205333 4.87733,-12.645333 0,-5.610667 -2.276,-9.618667 -4.844,-12.478667 -2.236,-2.422666 -5.236,-4.358666 -9.73333,-7.245333 -4.51067,-2.612 -6.41067,-3.909333 -8.73867,-5.814666 -2.45067,-1.904 -3.632,-4.405333 -3.632,-7.205333 0,-1.732 0.50267,-3.361334 1.536,-4.456 1.16533,-1.2746669 3.07733,-2.1760002 5.06667,-2.1760002 4.19733,0 5.90666,3.3933332 6.708,6.5546662 z"
     style="fill:#fff6d5;fill-opacity:1;fill-rule:nonzero;stroke:none;stroke-width:1.33333" />
  <path
     id="path30"
     d="m 331.02574,44.88799 c -0.84667,7.502666 -3.88667,13.582666 -9.74267,13.582666 -6.072,0 -11.31466,-5.749333 -11.31466,-24.575999 0,-18.512 4.984,-24.7919994 11.41066,-24.7919994 5.356,0 7.90667,4.2186664 9.156,12.4546664 l 12.7,-0.926667 C 341.22841,5.7386576 332.13907,-8.8778e-6 321.47107,-8.8778e-6 c -7.04933,0 -12.80933,2.5853332778 -17.13466,7.4053331778 -4.92667,5.6706667 -7.55334,14.4013327 -7.55334,25.9253327 0,13.554666 2.98267,22.005333 7.672,27.201333 4.34667,4.942666 10.62534,7.023999 16.932,7.023999 10.36267,0 20.204,-7.239999 22.508,-21.462666 z"
     style="fill:#fff6d5;fill-opacity:1;fill-rule:nonzero;stroke:none;stroke-width:1.33333" />
  <path
     id="path31"
     d="m 399.84334,1.27866 h -12.87067 v 26.883999 h -22.524 V 1.27866 h -12.864 v 64.990665 h 12.864 V 37.213326 h 22.524 v 29.055999 h 12.87067 z"
     style="fill:#fff6d5;fill-opacity:1;fill-rule:nonzero;stroke:none;stroke-width:1.33333" />
  <path
     id="path32"
     d="M 457.52827,1.27866 H 444.8576 v 42.371999 c 0,9.752 -2.348,14.914666 -11.024,14.914666 -8.75466,0 -10.93466,-5.353333 -10.93466,-14.914666 V 1.27866 h -12.67867 v 42.029332 c 0,17.401333 6.77733,24.248 23.58,24.248 17.26133,0 23.728,-7.188 23.728,-24.161333 z"
     style="fill:#fff6d5;fill-opacity:1;fill-rule:nonzero;stroke:none;stroke-width:1.33333" />
  <path
     id="path33"
     d="M 496.40721,57.03386 H 479.34454 V 1.2791947 H 466.47521 V 66.26986 h 29.932 z"
     style="fill:#fff6d5;fill-opacity:1;fill-rule:nonzero;stroke:none;stroke-width:1.33333" />
  <path
     id="path34"
     d="M 515.26787,28.16279 V 10.397457 h 21.236 V 1.2787907 H 502.40654 V 66.269456 h 34.68 v -9.128 H 515.26787 V 37.300123 H 531.2052 V 28.16279 Z"
     style="fill:#fff6d5;fill-opacity:1;fill-rule:nonzero;stroke:none;stroke-width:1.33333" />
</svg>
