<?xml version="1.0" encoding="UTF-8" standalone="no"?>
<!-- Created with Inkscape (http://www.inkscape.org/) -->

<svg
   version="1.1"
   id="svg1"
   width="537.38776"
   height="140.75"
   viewBox="0 0 537.38776 140.75"
   xmlns="http://www.w3.org/2000/svg"
   xmlns:svg="http://www.w3.org/2000/svg">
  <defs
     id="defs1" />
  <g
     id="layer-MC1"
     transform="translate(-109.25946,-509.79081)">
    <path
       id="path4"
       d="M 484.76,116.665 H 81.947 v 6.066 H 484.76 Z"
       style="fill:#c82128;fill-opacity:1;fill-rule:nonzero;stroke:none"
       transform="matrix(1.3333333,0,0,-1.3333333,0,755.90667)" />
    <path
       id="path5"
       d="m 0,0 c -3.095,0.044 -5.486,-0.73 -5.486,-3.129 0,-1.581 0.998,-2.352 2.315,-2.352 1.47,0 2.664,1.012 3.057,2.27 0.072,0.329 0.114,0.7 0.114,1.062 z m 5.723,-4.548 c 0,-1.908 0.075,-3.749 0.27,-4.834 H 0.697 l -0.342,1.993 h -0.12 c -1.242,-1.592 -3.173,-2.446 -5.412,-2.446 -3.83,0 -6.103,2.926 -6.103,6.1 0,5.161 4.399,7.633 11.084,7.598 v 0.283 c 0,1.056 -0.537,2.555 -3.436,2.555 -1.931,0 -3.981,-0.687 -5.225,-1.499 l -1.074,3.981 c 1.311,0.768 3.905,1.752 7.337,1.752 6.305,0 8.317,-3.902 8.317,-8.574 z"
       style="fill:#231f20;fill-opacity:1;fill-rule:nonzero;stroke:none"
       transform="matrix(1.3333333,0,0,-1.3333333,124.35813,637.42747)" />
    <path
       id="path6"
       d="m 0,0 c 0,2.477 -0.078,4.592 -0.154,6.332 h 4.95 L 5.068,3.659 h 0.109 c 0.806,1.252 2.472,3.129 5.725,3.129 2.431,0 4.369,-1.304 5.17,-3.38 h 0.079 c 0.705,1.07 1.55,1.838 2.442,2.405 1.038,0.649 2.197,0.975 3.59,0.975 3.633,0 6.381,-2.688 6.381,-8.617 v -11.699 h -5.728 v 10.807 c 0,2.875 -0.888,4.548 -2.776,4.548 -1.35,0 -2.317,-0.976 -2.708,-2.152 -0.152,-0.453 -0.226,-1.098 -0.226,-1.59 v -11.613 h -5.723 v 11.13 c 0,2.513 -0.847,4.225 -2.709,4.225 -1.503,0 -2.39,-1.222 -2.74,-2.237 C 5.758,-0.896 5.72,-1.461 5.72,-1.952 V -13.528 H 0 Z"
       style="fill:#231f20;fill-opacity:1;fill-rule:nonzero;stroke:none"
       transform="matrix(1.3333333,0,0,-1.3333333,138.17053,631.8988)" />
    <path
       id="path7"
       d="M 0,0 H -7.003 V 5.197 H 13.025 V 0 H 5.911 V -22.184 H 0 Z"
       style="fill:#231f20;fill-opacity:1;fill-rule:nonzero;stroke:none"
       transform="matrix(1.3333333,0,0,-1.3333333,197.8516,620.35853)" />
    <path
       id="path8"
       d="m 0,0 h 5.873 v -11.344 h 0.085 c 0.612,0.852 1.391,1.542 2.317,2.04 0.889,0.478 1.967,0.773 3.05,0.773 3.752,0 6.617,-2.721 6.617,-8.703 v -11.614 h -5.878 v 10.925 c 0,2.604 -0.853,4.4 -3.056,4.4 -1.551,0 -2.51,-1.067 -2.939,-2.163 -0.156,-0.412 -0.196,-0.935 -0.196,-1.377 V -28.848 H 0 Z"
       style="fill:#231f20;fill-opacity:1;fill-rule:nonzero;stroke:none"
       transform="matrix(1.3333333,0,0,-1.3333333,218.5156,611.47307)" />
    <path
       id="path9"
       d="m 0,0 c 0,-3.412 1.36,-5.967 3.873,-5.967 2.281,0 3.756,2.396 3.756,5.967 0,2.967 -1.089,5.977 -3.756,5.977 C 1.05,5.977 0,2.933 0,0 m 13.691,0.206 c 0,-7.27 -4.913,-10.603 -9.975,-10.603 -5.526,0 -9.775,3.818 -9.775,10.244 0,6.422 4.019,10.522 10.089,10.522 5.798,0 9.661,-4.19 9.661,-10.163"
       style="fill:#231f20;fill-opacity:1;fill-rule:nonzero;stroke:none"
       transform="matrix(1.3333333,0,0,-1.3333333,255.35933,636.6736)" />
    <path
       id="path10"
       d="M 0,0 C 0,2.477 -0.071,4.592 -0.147,6.332 H 4.794 L 5.068,3.659 h 0.115 c 0.815,1.252 2.474,3.129 5.718,3.129 2.445,0 4.376,-1.304 5.177,-3.38 h 0.079 c 0.704,1.07 1.552,1.838 2.438,2.405 1.05,0.649 2.196,0.975 3.59,0.975 3.637,0 6.382,-2.688 6.382,-8.617 v -11.699 h -5.725 v 10.807 c 0,2.875 -0.886,4.548 -2.772,4.548 -1.361,0 -2.319,-0.976 -2.713,-2.152 -0.156,-0.453 -0.228,-1.098 -0.228,-1.59 v -11.613 h -5.726 v 11.13 c 0,2.513 -0.847,4.225 -2.702,4.225 C 7.191,1.827 6.309,0.605 5.96,-0.41 5.763,-0.896 5.726,-1.461 5.726,-1.952 V -13.528 H 0 Z"
       style="fill:#231f20;fill-opacity:1;fill-rule:nonzero;stroke:none"
       transform="matrix(1.3333333,0,0,-1.3333333,278.45307,631.8988)" />
    <path
       id="path11"
       d="m 0,0 c -3.094,0.044 -5.486,-0.73 -5.486,-3.129 0,-1.581 1.005,-2.352 2.315,-2.352 1.474,0 2.666,1.012 3.054,2.27 0.079,0.329 0.117,0.7 0.117,1.062 z m 5.723,-4.548 c 0,-1.908 0.073,-3.749 0.266,-4.834 H 0.697 L 0.349,-7.389 H 0.245 C -1,-8.981 -2.935,-9.835 -5.173,-9.835 c -3.834,0 -6.106,2.926 -6.106,6.1 0,5.161 4.399,7.633 11.083,7.598 v 0.283 c 0,1.056 -0.536,2.555 -3.432,2.555 -1.942,0 -3.982,-0.687 -5.224,-1.499 l -1.085,3.981 c 1.317,0.768 3.908,1.752 7.347,1.752 6.304,0 8.313,-3.902 8.313,-8.574 z"
       style="fill:#231f20;fill-opacity:1;fill-rule:nonzero;stroke:none"
       transform="matrix(1.3333333,0,0,-1.3333333,336.18227,637.42747)" />
    <path
       id="path12"
       d="m 0,0 c 1.083,-0.688 3.324,-1.498 5.055,-1.498 1.786,0 2.51,0.654 2.51,1.67 0,1.009 -0.569,1.494 -2.775,2.272 -3.91,1.372 -5.417,3.614 -5.376,5.925 0,3.736 3.017,6.549 7.696,6.549 2.203,0 4.171,-0.534 5.327,-1.141 L 11.398,9.51 c -0.853,0.487 -2.478,1.136 -4.101,1.136 -1.427,0 -2.242,-0.607 -2.242,-1.62 0,-0.944 0.736,-1.43 3.052,-2.281 3.596,-1.303 5.108,-3.203 5.148,-6.132 0,-3.701 -2.778,-6.462 -8.2,-6.462 -2.467,0 -4.669,0.613 -6.105,1.434 z"
       style="fill:#231f20;fill-opacity:1;fill-rule:nonzero;stroke:none"
       transform="matrix(1.3333333,0,0,-1.3333333,349.95187,642.73867)" />
    <path
       id="path13"
       d="m 288.198,88.085 h -10.121 v 4.143 h 10.121 z"
       style="fill:#231f20;fill-opacity:1;fill-rule:nonzero;stroke:none"
       transform="matrix(1.3333333,0,0,-1.3333333,0,755.90667)" />
    <path
       id="path14"
       d="M 0,0 C -0.113,3.293 -0.234,7.269 -0.234,11.252 H -0.346 C -1.151,7.765 -2.24,3.863 -3.24,0.65 l -3.174,-10.681 h -4.596 l -2.791,10.564 c -0.848,3.245 -1.734,7.146 -2.35,10.719 h -0.083 c -0.149,-3.688 -0.273,-7.912 -0.457,-11.33 l -0.467,-10.401 h -5.452 l 1.664,27.38 h 7.842 l 2.558,-9.136 c 0.812,-3.136 1.619,-6.586 2.196,-9.808 h 0.121 C -7.5,1.134 -6.61,4.748 -5.763,7.8 l 2.783,9.101 h 7.698 l 1.436,-27.38 H 0.387 Z"
       style="fill:#231f20;fill-opacity:1;fill-rule:nonzero;stroke:none"
       transform="matrix(1.3333333,0,0,-1.3333333,418.58853,635.964)" />
    <path
       id="path15"
       d="m 0,0 c -3.088,0.044 -5.486,-0.73 -5.486,-3.129 0,-1.581 1,-2.352 2.322,-2.352 1.473,0 2.66,1.012 3.047,2.27 C -0.04,-2.882 0,-2.511 0,-2.149 Z m 5.723,-4.548 c 0,-1.908 0.076,-3.749 0.264,-4.834 H 0.702 L 0.347,-7.389 H 0.238 c -1.243,-1.592 -3.173,-2.446 -5.411,-2.446 -3.831,0 -6.105,2.926 -6.105,6.1 0,5.161 4.397,7.633 11.089,7.598 v 0.283 c 0,1.056 -0.544,2.555 -3.441,2.555 -1.93,0 -3.983,-0.687 -5.224,-1.499 l -1.077,3.981 c 1.312,0.768 3.905,1.752 7.349,1.752 6.299,0 8.305,-3.902 8.305,-8.574 z"
       style="fill:#231f20;fill-opacity:1;fill-rule:nonzero;stroke:none"
       transform="matrix(1.3333333,0,0,-1.3333333,446.112,637.42747)" />
    <path
       id="path16"
       d="m 0,0 c 0,2.477 -0.07,4.592 -0.152,6.332 h 5.1 L 5.221,3.617 h 0.121 c 0.764,1.258 2.702,3.171 5.833,3.171 3.859,0 6.763,-2.688 6.763,-8.531 v -11.785 h -5.874 v 11.012 c 0,2.559 -0.859,4.312 -2.983,4.312 -1.619,0 -2.588,-1.191 -2.975,-2.33 C 5.957,-0.94 5.871,-1.505 5.871,-2.072 V -13.528 H 0 Z"
       style="fill:#231f20;fill-opacity:1;fill-rule:nonzero;stroke:none"
       transform="matrix(1.3333333,0,0,-1.3333333,459.92573,631.8988)" />
    <path
       id="path17"
       d="M 0,0 C 0,2.477 -0.071,4.592 -0.15,6.332 H 4.951 L 5.227,3.617 h 0.111 c 0.777,1.258 2.704,3.171 5.836,3.171 3.874,0 6.764,-2.688 6.764,-8.531 v -11.785 h -5.871 v 11.012 c 0,2.559 -0.851,4.312 -2.987,4.312 -1.609,0 -2.578,-1.191 -2.965,-2.33 C 5.953,-0.94 5.89,-1.505 5.89,-2.072 V -13.528 H 0 Z"
       style="fill:#231f20;fill-opacity:1;fill-rule:nonzero;stroke:none"
       transform="matrix(1.3333333,0,0,-1.3333333,490.12507,631.8988)" />
    <path
       id="path18"
       d="m 399.186,88.085 h -10.131 v 4.143 h 10.131 z"
       style="fill:#231f20;fill-opacity:1;fill-rule:nonzero;stroke:none"
       transform="matrix(1.3333333,0,0,-1.3333333,0,755.90667)" />
    <path
       id="path19"
       d="m 0,0 c 0.506,-0.124 1.127,-0.159 1.969,-0.159 3.137,0 5.061,1.664 5.061,4.467 0,2.519 -1.655,4.03 -4.599,4.03 C 1.238,8.338 0.419,8.215 0,8.081 Z m -5.838,12.426 c 1.817,0.327 4.375,0.576 7.971,0.576 3.625,0 6.221,-0.732 7.957,-2.189 1.659,-1.392 2.777,-3.663 2.777,-6.351 0,-2.675 -0.846,-4.954 -2.39,-6.495 -2.006,-1.99 -4.991,-2.88 -8.471,-2.88 -0.768,0 -1.466,0.042 -2.006,0.123 v -9.794 h -5.838 z"
       style="fill:#231f20;fill-opacity:1;fill-rule:nonzero;stroke:none"
       transform="matrix(1.3333333,0,0,-1.3333333,544.9688,630.49133)" />
    <path
       id="path20"
       d="m 425.151,108.325 h 5.882 V 79.477 h -5.882 z"
       style="fill:#231f20;fill-opacity:1;fill-rule:nonzero;stroke:none"
       transform="matrix(1.3333333,0,0,-1.3333333,0,755.90667)" />
    <path
       id="path21"
       d="m 0,0 c -3.089,0.044 -5.488,-0.73 -5.488,-3.129 0,-1.581 0.999,-2.352 2.317,-2.352 1.47,0 2.671,1.012 3.057,2.27 0.075,0.329 0.114,0.7 0.114,1.062 z m 5.722,-4.548 c 0,-1.908 0.076,-3.749 0.269,-4.834 H 0.693 L 0.351,-7.389 H 0.234 c -1.241,-1.592 -3.172,-2.446 -5.411,-2.446 -3.825,0 -6.102,2.926 -6.102,6.1 0,5.161 4.397,7.633 11.083,7.598 v 0.283 c 0,1.056 -0.54,2.555 -3.436,2.555 -1.93,0 -3.982,-0.687 -5.215,-1.499 l -1.091,3.981 c 1.323,0.768 3.904,1.752 7.343,1.752 6.305,0 8.317,-3.902 8.317,-8.574 z"
       style="fill:#231f20;fill-opacity:1;fill-rule:nonzero;stroke:none"
       transform="matrix(1.3333333,0,0,-1.3333333,594.444,637.42747)" />
    <path
       id="path22"
       d="M 0,0 V -5.397 H 4.211 V -9.939 H 0 v -7.199 c 0,-2.397 0.536,-3.489 2.322,-3.489 0.8,0 1.153,0.035 1.729,0.155 l 0.046,-4.668 c -0.773,-0.324 -2.167,-0.568 -3.831,-0.568 -1.895,0 -3.476,0.721 -4.406,1.743 -1.082,1.178 -1.622,3.087 -1.622,5.89 v 8.136 h -2.513 v 4.542 h 2.513 v 3.744 z"
       style="fill:#231f20;fill-opacity:1;fill-rule:nonzero;stroke:none"
       transform="matrix(1.3333333,0,0,-1.3333333,616.61453,616.25173)" />
    <path
       id="path23"
       d="m 0,0 5.951,7.84 c 1.08,1.348 1.937,2.31 3.013,3.536 v 0.086 H 0.651 v 4.866 H 16.117 V 12.639 L 10.431,5.122 C 9.388,3.819 8.421,2.563 7.342,1.469 V 1.381 h 9.077 V -3.532 H 0 Z"
       style="fill:#231f20;fill-opacity:1;fill-rule:nonzero;stroke:none"
       transform="matrix(1.3333333,0,0,-1.3333333,624.7552,645.22693)" />
    <path
       id="path24"
       d="m 0,0 c -1.577,8.174 -4.377,18.838 -9.313,37.56 h -14.593 v -48.744 h 8.699 c 0,19.863 -0.054,33.265 -0.289,40.803 h 0.247 c 1.811,-7.529 5.44,-20.926 10.764,-40.803 h 9.131 c 5.626,20.319 9.007,33.287 10.769,40.803 h 0.238 C 15.497,22.081 15.415,8.679 15.415,-11.184 h 8.703 V 37.56 H 9.533 C 4.547,18.962 1.811,8.208 0.196,0 Z"
       style="fill:#231f20;fill-opacity:1;fill-rule:nonzero;stroke:none"
       transform="matrix(1.3333333,0,0,-1.3333333,141.13413,561.1488)" />
    <path
       id="path25"
       d="m 0,0 h -9.494 v -31.779 c 0,-7.314 -1.764,-11.186 -8.28,-11.186 -6.558,0 -8.194,4.015 -8.194,11.186 V 0 h -9.506 v -31.522 c 0,-13.051 5.09,-18.186 17.687,-18.186 12.944,0 17.787,5.391 17.787,18.121 z"
       style="fill:#231f20;fill-opacity:1;fill-rule:nonzero;stroke:none"
       transform="matrix(1.3333333,0,0,-1.3333333,230.1328,511.06947)" />
    <path
       id="path26"
       d="m 0,0 c -0.866,6.449 -5.254,11.438 -13.93,11.438 -5.129,0 -8.748,-1.532 -11.23,-3.884 -2.469,-2.175 -3.551,-5.265 -3.551,-8.628 0,-4.379 1.749,-7.406 3.614,-9.457 1.774,-2.006 4.247,-3.865 7.849,-6.073 3.381,-2.253 4.986,-3.315 6.305,-4.439 1.363,-1.329 2.196,-2.897 2.196,-5.177 0,-1.437 -0.41,-2.974 -1.244,-3.999 -0.916,-1.076 -2.382,-2.185 -4.609,-2.185 -3.486,0 -5.068,2.608 -5.754,5.574 l -9.446,-0.428 c 0.91,-6.86 5.313,-11.971 15.248,-11.971 5.906,0 9.626,2.402 12.028,4.84 2.587,2.654 3.66,6.154 3.66,9.484 0,4.208 -1.714,7.214 -3.633,9.359 -1.684,1.817 -3.927,3.269 -7.301,5.434 -3.387,1.959 -4.808,2.932 -6.552,4.361 -1.837,1.428 -2.725,3.304 -2.725,5.404 0,1.299 0.385,2.521 1.158,3.342 0.877,0.956 2.298,1.632 3.793,1.632 3.147,0 4.436,-2.545 5.029,-4.916 z"
       style="fill:#231f20;fill-opacity:1;fill-rule:nonzero;stroke:none"
       transform="matrix(1.3333333,0,0,-1.3333333,277.3268,525.04213)" />
    <path
       id="path27"
       d="m 224.045,183.628 h -9.785 v -48.74 h 9.785 z"
       style="fill:#231f20;fill-opacity:1;fill-rule:nonzero;stroke:none"
       transform="matrix(1.3333333,0,0,-1.3333333,0,755.90667)" />
    <path
       id="path28"
       d="m 0,0 c 0.091,3.753 0.108,6.914 0.108,11.002 v 12.184 h -9.754 v -48.744 h 9.754 v 13.974 l 4.719,6.643 10.124,-20.617 h 11.15 L 10.632,2.563 24.131,23.186 H 13.279 L 6.312,10.962 C 4.085,6.847 2.184,3.848 0.206,0 Z"
       style="fill:#231f20;fill-opacity:1;fill-rule:nonzero;stroke:none"
       transform="matrix(1.3333333,0,0,-1.3333333,321.80333,541.98347)" />
    <path
       id="path29"
       d="m 0,0 c -0.881,6.449 -5.267,11.438 -13.939,11.438 -5.141,0 -8.754,-1.532 -11.237,-3.884 -2.459,-2.175 -3.552,-5.265 -3.552,-8.628 0,-4.379 1.75,-7.406 3.625,-9.457 1.764,-2.006 4.237,-3.865 7.839,-6.073 3.387,-2.253 4.993,-3.315 6.314,-4.439 1.36,-1.329 2.183,-2.897 2.183,-5.177 0,-1.437 -0.397,-2.974 -1.237,-3.999 -0.922,-1.076 -2.382,-2.185 -4.612,-2.185 -3.492,0 -5.062,2.608 -5.749,5.574 l -9.448,-0.428 c 0.914,-6.86 5.316,-11.971 15.254,-11.971 5.898,0 9.62,2.402 12.023,4.84 2.583,2.654 3.658,6.154 3.658,9.484 0,4.208 -1.707,7.214 -3.633,9.359 -1.677,1.817 -3.927,3.269 -7.3,5.434 -3.383,1.959 -4.808,2.932 -6.554,4.361 -1.838,1.428 -2.724,3.304 -2.724,5.404 0,1.299 0.377,2.521 1.152,3.342 0.874,0.956 2.308,1.632 3.8,1.632 3.148,0 4.43,-2.545 5.031,-4.916 z"
       style="fill:#231f20;fill-opacity:1;fill-rule:nonzero;stroke:none"
       transform="matrix(1.3333333,0,0,-1.3333333,399.41147,525.04213)" />
    <path
       id="path30"
       d="m 0,0 c -0.635,-5.627 -2.915,-10.187 -7.307,-10.187 -4.554,0 -8.486,4.312 -8.486,18.432 0,13.884 3.738,18.594 8.558,18.594 4.017,0 5.93,-3.164 6.867,-9.341 l 9.525,0.695 C 7.652,29.362 0.835,33.666 -7.166,33.666 c -5.287,0 -9.607,-1.939 -12.851,-5.554 -3.695,-4.253 -5.665,-10.801 -5.665,-19.444 0,-10.166 2.237,-16.504 5.754,-20.401 3.26,-3.707 7.969,-5.268 12.699,-5.268 7.772,0 15.153,5.43 16.881,16.097 z"
       style="fill:#231f20;fill-opacity:1;fill-rule:nonzero;stroke:none"
       transform="matrix(1.3333333,0,0,-1.3333333,440.2852,554.6788)" />
    <path
       id="path31"
       d="M 0,0 H -9.653 V -20.163 H -26.546 V 0 h -9.648 v -48.743 h 9.648 v 21.792 H -9.653 V -48.743 H 0 Z"
       style="fill:#231f20;fill-opacity:1;fill-rule:nonzero;stroke:none"
       transform="matrix(1.3333333,0,0,-1.3333333,509.1028,511.06947)" />
    <path
       id="path32"
       d="m 0,0 h -9.503 v -31.779 c 0,-7.314 -1.761,-11.186 -8.268,-11.186 -6.566,0 -8.201,4.015 -8.201,11.186 V 0 h -9.509 v -31.522 c 0,-13.051 5.083,-18.186 17.685,-18.186 12.946,0 17.796,5.391 17.796,18.121 z"
       style="fill:#231f20;fill-opacity:1;fill-rule:nonzero;stroke:none"
       transform="matrix(1.3333333,0,0,-1.3333333,566.78773,511.06947)" />
    <path
       id="path33"
       d="m 0,0 h -12.797 v 41.816 h -9.652 V -6.927 H 0 Z"
       style="fill:#231f20;fill-opacity:1;fill-rule:nonzero;stroke:none"
       transform="matrix(1.3333333,0,0,-1.3333333,605.66667,566.82467)" />
    <path
       id="path34"
       d="m 0,0 v 13.324 h 15.927 v 6.839 H -9.646 V -28.58 h 26.01 v 6.846 H 0 V -6.853 H 11.953 V 0 Z"
       style="fill:#231f20;fill-opacity:1;fill-rule:nonzero;stroke:none"
       transform="matrix(1.3333333,0,0,-1.3333333,624.52733,537.9536)" />
  </g>
</svg>
